<svg width="40" height="40" viewBox="0 0 40 40" fill="none" xmlns="http://www.w3.org/2000/svg">
<path d="M21.6666 15.0002H18.3333V11.6668H21.6666M21.6666 28.3335H18.3333V18.3335H21.6666M19.9999 3.3335C17.8112 3.3335 15.644 3.76459 13.6219 4.60217C11.5998 5.43975 9.76245 6.66741 8.21481 8.21505C5.0892 11.3407 3.33325 15.5799 3.33325 20.0002C3.33325 24.4204 5.0892 28.6597 8.21481 31.7853C9.76245 33.3329 11.5998 34.5606 13.6219 35.3982C15.644 36.2357 17.8112 36.6668 19.9999 36.6668C24.4202 36.6668 28.6594 34.9109 31.785 31.7853C34.9106 28.6597 36.6666 24.4204 36.6666 20.0002C36.6666 17.8115 36.2355 15.6442 35.3979 13.6221C34.5603 11.6 33.3327 9.76269 31.785 8.21505C30.2374 6.66741 28.4001 5.43975 26.378 4.60217C24.3559 3.76459 22.1886 3.3335 19.9999 3.3335Z" fill="black"/>
</svg>
