<svg width="100" height="100" viewBox="0 0 100 100" fill="none" xmlns="http://www.w3.org/2000/svg">
<g clip-path="url(#clip0_558_57)">
<path d="M21.8 16.25L24.5 27.75L21.8 39.2L31.85 45.4L38 55.45L49.5 52.75L61 55.45L67.15 45.4L77.2 39.2L74.5 27.75L77.2 16.25L67.2 10.05L61 0L49.5 2.75L38.05 0.05L31.8 10.05L21.8 16.25ZM49.55 47.95C44.2457 47.95 39.1586 45.8429 35.4079 42.0921C31.6571 38.3414 29.55 33.2543 29.55 27.95C29.55 22.6457 31.6571 17.5586 35.4079 13.8079C39.1586 10.0571 44.2457 7.95 49.55 7.95C60.55 7.95 69.5 16.9 69.5 27.9C69.5 39 60.55 47.95 49.55 47.95ZM49.45 42.95C41.15 42.95 34.5 36.25 34.5 27.95C34.5 19.7 41.15 12.95 49.45 12.95C57.75 12.95 64.5 19.7 64.5 27.95C64.5 36.25 57.75 42.95 49.45 42.95ZM68.65 48.45L62.25 59.65L51.85 57.3L64.5 86.45L71.5 75.45H84L68.65 48.45ZM30.15 48.8L36.4 60.05L47.05 57.5L34.5 86.45L27.5 75.45H15L30.15 48.8Z" fill="black"/>
<path d="M82 36.5C77.376 36.5558 72.9572 38.4174 69.6873 41.6873C66.4174 44.9572 64.5558 49.376 64.5 54C64.5558 58.624 66.4174 63.0428 69.6873 66.3127C72.9572 69.5826 77.376 71.4442 82 71.5C86.624 71.4442 91.0428 69.5826 94.3127 66.3127C97.5826 63.0428 99.4442 58.624 99.5 54C99.4442 49.376 97.5826 44.9572 94.3127 41.6873C91.0428 38.4174 86.624 36.5558 82 36.5ZM92 55.25H83.25V64H80.75V55.25H72V52.75H80.75V44H83.25V52.75H92V55.25Z" fill="black"/>
</g>
<defs>
<clipPath id="clip0_558_57">
<rect width="100" height="100" fill="white"/>
</clipPath>
</defs>
</svg>
