<svg width="40" height="32" viewBox="0 0 40 32" fill="none" xmlns="http://www.w3.org/2000/svg">
<path d="M35.5556 3.42857C36.1667 3.42857 36.6667 3.94286 36.6667 4.57143V27.4286C36.6667 28.0571 36.1667 28.5714 35.5556 28.5714H4.44444C3.83333 28.5714 3.33333 28.0571 3.33333 27.4286V4.57143C3.33333 3.94286 3.83333 3.42857 4.44444 3.42857H35.5556ZM4.44444 0C1.99306 0 0 2.05 0 4.57143V27.4286C0 29.95 1.99306 32 4.44444 32H35.5556C38.0069 32 40 29.95 40 27.4286V4.57143C40 2.05 38.0069 0 35.5556 0H4.44444ZM14.4444 16C15.6232 16 16.7536 15.5184 17.5871 14.6611C18.4206 13.8038 18.8889 12.641 18.8889 11.4286C18.8889 10.2162 18.4206 9.05339 17.5871 8.19608C16.7536 7.33877 15.6232 6.85714 14.4444 6.85714C13.2657 6.85714 12.1352 7.33877 11.3017 8.19608C10.4683 9.05339 10 10.2162 10 11.4286C10 12.641 10.4683 13.8038 11.3017 14.6611C12.1352 15.5184 13.2657 16 14.4444 16ZM12.2222 18.2857C9.15278 18.2857 6.66667 20.8429 6.66667 24C6.66667 24.6286 7.16667 25.1429 7.77778 25.1429H21.1111C21.7222 25.1429 22.2222 24.6286 22.2222 24C22.2222 20.8429 19.7361 18.2857 16.6667 18.2857H12.2222ZM26.1111 8C25.1875 8 24.4444 8.76429 24.4444 9.71429C24.4444 10.6643 25.1875 11.4286 26.1111 11.4286H31.6667C32.5903 11.4286 33.3333 10.6643 33.3333 9.71429C33.3333 8.76429 32.5903 8 31.6667 8H26.1111ZM26.1111 14.8571C25.1875 14.8571 24.4444 15.6214 24.4444 16.5714C24.4444 17.5214 25.1875 18.2857 26.1111 18.2857H31.6667C32.5903 18.2857 33.3333 17.5214 33.3333 16.5714C33.3333 15.6214 32.5903 14.8571 31.6667 14.8571H26.1111Z" fill="black"/>
</svg>
