<svg width="24" height="24" viewBox="0 0 24 24" fill="none" xmlns="http://www.w3.org/2000/svg">
<path d="M11.75 2H8.25C7.69656 2.00002 7.16254 2.20401 6.75004 2.57297C6.33754 2.94194 6.07549 3.44999 6.014 4H4.25C3.65326 4 3.08097 4.23705 2.65901 4.65901C2.23705 5.08097 2 5.65326 2 6.25V19.75C2 20.3467 2.23705 20.919 2.65901 21.341C3.08097 21.7629 3.65326 22 4.25 22H12.81C11.6467 20.791 10.9978 19.1778 11 17.5C11 16.255 11.35 15.092 11.957 14.104L9.53 16.53C9.38937 16.6705 9.19875 16.7493 9 16.7493C8.80125 16.7493 8.61063 16.6705 8.47 16.53L5.97 14.03C5.89631 13.9613 5.83721 13.8785 5.79622 13.7865C5.75523 13.6945 5.73319 13.5952 5.73141 13.4945C5.72963 13.3938 5.74816 13.2938 5.78588 13.2004C5.8236 13.107 5.87974 13.0222 5.95096 12.951C6.02218 12.8797 6.10701 12.8236 6.2004 12.7859C6.29379 12.7482 6.39382 12.7296 6.49452 12.7314C6.59523 12.7332 6.69454 12.7552 6.78654 12.7962C6.87854 12.8372 6.96134 12.8963 7.03 12.97L9 14.94L13.97 9.97C14.0387 9.89631 14.1215 9.83721 14.2135 9.79622C14.3055 9.75523 14.4048 9.73318 14.5055 9.73141C14.6062 9.72963 14.7062 9.74816 14.7996 9.78588C14.893 9.8236 14.9778 9.87974 15.049 9.95096C15.1203 10.0222 15.1764 10.107 15.2141 10.2004C15.2518 10.2938 15.2704 10.3938 15.2686 10.4945C15.2668 10.5952 15.2448 10.6945 15.2038 10.7865C15.1628 10.8785 15.1037 10.9613 15.03 11.03L14.104 11.957C15.2706 11.2396 16.6347 10.9108 18 11.018V6.25C18 5.65326 17.7629 5.08097 17.341 4.65901C16.919 4.23705 16.3467 4 15.75 4H13.986C13.9245 3.44999 13.6625 2.94194 13.25 2.57297C12.8375 2.20401 12.3034 2.00002 11.75 2ZM8.25 3.5H11.75C11.9489 3.5 12.1397 3.57902 12.2803 3.71967C12.421 3.86032 12.5 4.05109 12.5 4.25C12.5 4.44891 12.421 4.63968 12.2803 4.78033C12.1397 4.92098 11.9489 5 11.75 5H8.25C8.05109 5 7.86032 4.92098 7.71967 4.78033C7.57902 4.63968 7.5 4.44891 7.5 4.25C7.5 4.05109 7.57902 3.86032 7.71967 3.71967C7.86032 3.57902 8.05109 3.5 8.25 3.5ZM23 17.5C23 16.0413 22.4205 14.6424 21.3891 13.6109C20.3576 12.5795 18.9587 12 17.5 12C16.0413 12 14.6424 12.5795 13.6109 13.6109C12.5795 14.6424 12 16.0413 12 17.5C12 18.9587 12.5795 20.3576 13.6109 21.3891C14.6424 22.4205 16.0413 23 17.5 23C18.9587 23 20.3576 22.4205 21.3891 21.3891C22.4205 20.3576 23 18.9587 23 17.5ZM18 18L18.001 20.503C18.001 20.6356 17.9483 20.7628 17.8546 20.8566C17.7608 20.9503 17.6336 21.003 17.501 21.003C17.3684 21.003 17.2412 20.9503 17.1474 20.8566C17.0537 20.7628 17.001 20.6356 17.001 20.503V18H14.496C14.3634 18 14.2362 17.9473 14.1424 17.8536C14.0487 17.7598 13.996 17.6326 13.996 17.5C13.996 17.3674 14.0487 17.2402 14.1424 17.1464C14.2362 17.0527 14.3634 17 14.496 17H17V14.5C17 14.3674 17.0527 14.2402 17.1464 14.1464C17.2402 14.0527 17.3674 14 17.5 14C17.6326 14 17.7598 14.0527 17.8536 14.1464C17.9473 14.2402 18 14.3674 18 14.5V17H20.497C20.6296 17 20.7568 17.0527 20.8506 17.1464C20.9443 17.2402 20.997 17.3674 20.997 17.5C20.997 17.6326 20.9443 17.7598 20.8506 17.8536C20.7568 17.9473 20.6296 18 20.497 18H18Z" fill="black"/>
</svg>
