<svg width="70" height="80" viewBox="0 0 70 80" fill="none" xmlns="http://www.w3.org/2000/svg">
<path d="M21.875 54.94H39.5208C38.9083 56.4982 38.4416 58.1559 38.1791 59.913H21.875C13.0083 59.913 5.83331 51.7572 5.83331 41.6784C5.83331 31.5997 13.0083 23.4439 21.875 23.4439H52.5C58.9458 23.4439 64.1666 29.3784 64.1666 36.7054C64.1666 39.7224 63.2625 42.4741 61.7458 44.6954C60.1708 43.9992 58.4791 43.5682 56.7291 43.4356C57.9897 42.4192 58.9328 40.9731 59.4219 39.3067C59.911 37.6403 59.9207 35.8402 59.4496 34.1671C58.9784 32.494 58.0509 31.0348 56.8015 30.001C55.552 28.9672 54.0454 28.4124 52.5 28.4169H21.875C15.4291 28.4169 10.2083 34.3515 10.2083 41.6784C10.2083 49.0054 15.4291 54.94 21.875 54.94ZM27.7083 44.9938C26.1041 44.9938 24.7916 43.5019 24.7916 41.6784C24.7916 39.855 26.1041 38.3631 27.7083 38.3631H49.5833V33.39H27.7083C25.7744 33.39 23.9198 34.2632 22.5523 35.8176C21.1849 37.372 20.4166 39.4802 20.4166 41.6784C20.4166 43.8767 21.1849 45.9849 22.5523 47.5393C23.9198 49.0936 25.7744 49.9669 27.7083 49.9669H42.4083C44.0807 47.8323 46.1406 46.1356 48.4458 44.9938H27.7083ZM58.3333 59.913V49.9669H52.5V59.913H43.75V66.5438H52.5V76.4899H58.3333V66.5438H67.0833V59.913H58.3333Z" fill="#F6F6F6"/>
</svg>
