<svg width="48" height="48" viewBox="0 0 48 48" fill="none" xmlns="http://www.w3.org/2000/svg">
<path fill-rule="evenodd" clip-rule="evenodd" d="M12 7C12 6.73478 12.1054 6.48043 12.2929 6.29289C12.4804 6.10536 12.7348 6 13 6H35C35.2652 6 35.5196 6.10536 35.7071 6.29289C35.8946 6.48043 36 6.73478 36 7V8H41C41.2652 8 41.5196 8.10536 41.7071 8.29289C41.8946 8.48043 42 8.73478 42 9V15C42 16.3261 41.4732 17.5979 40.5355 18.5355C39.5979 19.4732 38.3261 20 37 20H35.317C34.6022 22.0171 33.3618 23.8068 31.7238 25.184C30.0859 26.5612 28.1099 27.4761 26 27.834V34H32C32.2652 34 32.5196 34.1054 32.7071 34.2929C32.8946 34.4804 33 34.7348 33 35V41C33 41.2652 32.8946 41.5196 32.7071 41.7071C32.5196 41.8946 32.2652 42 32 42H16C15.7348 42 15.4804 41.8946 15.2929 41.7071C15.1054 41.5196 15 41.2652 15 41V35C15 34.7348 15.1054 34.4804 15.2929 34.2929C15.4804 34.1054 15.7348 34 16 34H22V27.834C19.8901 27.4761 17.9141 26.5612 16.2762 25.184C14.6382 23.8068 13.3978 22.0171 12.683 20H11C9.67392 20 8.40215 19.4732 7.46447 18.5355C6.52678 17.5979 6 16.3261 6 15V9C6 8.73478 6.10536 8.48043 6.29289 8.29289C6.48043 8.10536 6.73478 8 7 8H12V7ZM36 16V10H40V15C40 15.7956 39.6839 16.5587 39.1213 17.1213C38.5587 17.6839 37.7956 18 37 18H36V16ZM12 10H8V15C8 15.7956 8.31607 16.5587 8.87868 17.1213C9.44129 17.6839 10.2044 18 11 18H12V10Z" fill="#FFD700"/>
</svg>
