<svg width="200" height="200" viewBox="0 0 200 200" fill="none" xmlns="http://www.w3.org/2000/svg">
<g clip-path="url(#clip0_10_37)">
<path d="M99.9998 16.6667C146.025 16.6667 183.333 53.9751 183.333 100C183.333 146.025 146.025 183.333 99.9998 183.333C53.9748 183.333 16.6665 146.025 16.6665 100C16.6665 53.9751 53.9748 16.6667 99.9998 16.6667ZM99.9998 33.3334C82.3187 33.3334 65.3618 40.3572 52.8594 52.8596C40.357 65.3621 33.3332 82.319 33.3332 100C33.3332 117.681 40.357 134.638 52.8594 147.141C65.3618 159.643 82.3187 166.667 99.9998 166.667C117.681 166.667 134.638 159.643 147.14 147.141C159.643 134.638 166.667 117.681 166.667 100C166.667 82.319 159.643 65.3621 147.14 52.8596C134.638 40.3572 117.681 33.3334 99.9998 33.3334ZM125 58.3334C127.21 58.3334 129.33 59.2114 130.892 60.7742C132.455 62.337 133.333 64.4566 133.333 66.6668C133.333 68.8769 132.455 70.9965 130.892 72.5593C129.33 74.1221 127.21 75.0001 125 75.0001H112.208C113.7 77.5834 114.858 80.3751 115.617 83.3334H125C127.21 83.3334 129.33 84.2114 130.892 85.7742C132.455 87.337 133.333 89.4566 133.333 91.6668C133.333 93.8769 132.455 95.9965 130.892 97.5593C129.33 99.1221 127.21 100 125 100H115.617C114.337 104.94 111.942 109.522 108.617 113.393C105.292 117.265 101.124 120.323 96.4332 122.333L113.333 135C115.101 136.326 116.27 138.3 116.583 140.488C116.895 142.676 116.326 144.899 115 146.667C113.674 148.435 111.7 149.604 109.512 149.916C107.324 150.229 105.101 149.66 103.333 148.333L70.0832 123.392C68.6613 122.347 67.6064 120.879 67.069 119.198C66.5317 117.517 66.5396 115.709 67.0915 114.033C68.2082 110.692 71.4248 108.292 75.0915 108.333H83.3332C86.2587 108.333 89.1327 107.563 91.6663 106.1C94.1998 104.638 96.3037 102.534 97.7665 100H74.9998C72.7897 100 70.6701 99.1221 69.1073 97.5593C67.5445 95.9965 66.6665 93.8769 66.6665 91.6668C66.6665 89.4566 67.5445 87.337 69.1073 85.7742C70.6701 84.2114 72.7897 83.3334 74.9998 83.3334H97.7665C96.3037 80.7998 94.1998 78.6959 91.6663 77.2331C89.1327 75.7703 86.2587 75.0002 83.3332 75.0001H74.9998C72.7897 75.0001 70.6701 74.1221 69.1073 72.5593C67.5445 70.9965 66.6665 68.8769 66.6665 66.6668C66.6665 64.4566 67.5445 62.337 69.1073 60.7742C70.6701 59.2114 72.7897 58.3334 74.9998 58.3334H125Z" fill="#0DEBE5"/>
</g>
<defs>
<clipPath id="clip0_10_37">
<rect width="200" height="200" fill="white"/>
</clipPath>
</defs>
</svg>
