<svg width="40" height="40" viewBox="0 0 40 40" fill="none" xmlns="http://www.w3.org/2000/svg">
<path d="M32.4951 13.3148L20.0001 25.4948L7.50507 13.3148C7.28182 13.0967 6.98214 12.9747 6.67007 12.9747C6.358 12.9747 6.05831 13.0967 5.83507 13.3148C5.72697 13.4207 5.6411 13.5471 5.58247 13.6866C5.52385 13.8262 5.49365 13.976 5.49365 14.1273C5.49365 14.2786 5.52385 14.4284 5.58247 14.568C5.6411 14.7075 5.72697 14.8339 5.83507 14.9398L19.1276 27.8998C19.361 28.1273 19.6741 28.2547 20.0001 28.2547C20.326 28.2547 20.6391 28.1273 20.8726 27.8998L34.1651 14.9423C34.2739 14.8363 34.3605 14.7096 34.4195 14.5696C34.4786 14.4296 34.509 14.2792 34.509 14.1273C34.509 13.9754 34.4786 13.825 34.4195 13.685C34.3605 13.545 34.2739 13.4183 34.1651 13.3123C33.9418 13.0942 33.6421 12.9722 33.3301 12.9722C33.018 12.9722 32.7183 13.0942 32.4951 13.3123V13.3148Z" fill="black"/>
</svg>
