<svg width="200" height="200" viewBox="0 0 200 200" fill="none" xmlns="http://www.w3.org/2000/svg">
<path d="M175 141.667V66.6666H58.3335V141.667H175ZM175 24.9999C179.42 24.9999 183.66 26.7559 186.785 29.8815C189.911 33.0071 191.667 37.2463 191.667 41.6666V141.667C191.667 146.087 189.911 150.326 186.785 153.452C183.66 156.577 179.42 158.333 175 158.333H58.3335C53.9132 158.333 49.674 156.577 46.5484 153.452C43.4228 150.326 41.6668 146.087 41.6668 141.667V41.6666C41.6668 37.2463 43.4228 33.0071 46.5484 29.8815C49.674 26.7559 53.9132 24.9999 58.3335 24.9999H66.6668V8.33325H83.3335V24.9999H150V8.33325H166.667V24.9999H175ZM25.0002 175H141.667V191.667H25.0002C20.5799 191.667 16.3407 189.911 13.215 186.785C10.0894 183.659 8.3335 179.42 8.3335 175V74.9999H25.0002V175ZM158.333 125H125V91.6666H158.333V125Z" fill="#0DEBE5"/>
</svg>
