<svg width="40" height="40" viewBox="0 0 40 40" fill="none" xmlns="http://www.w3.org/2000/svg">
<path d="M20 7.5C11.2775 7.5 3.715 12.58 0 20C3.715 27.42 11.2775 32.5 20 32.5C28.7225 32.5 36.285 27.42 40 20C36.285 12.58 28.7225 7.5 20 7.5ZM29.8625 14.13C32.2125 15.63 34.205 17.6375 35.7 20C34.2097 22.3623 32.2164 24.3666 29.8625 25.87C26.9176 27.7516 23.4959 28.7514 20.0012 28.7514C16.5066 28.7514 13.0849 27.7516 10.14 25.87C7.78714 24.3652 5.7942 22.3612 4.3025 20C5.89098 17.4828 8.04905 15.3744 10.6025 13.845C10.053 15.3556 9.8757 16.9764 10.0857 18.5701C10.2957 20.1638 10.8868 21.6834 11.809 23.0001C12.7311 24.3168 13.957 25.3917 15.3829 26.1339C16.8088 26.8761 18.3925 27.2636 20 27.2636C21.6075 27.2636 23.1912 26.8761 24.6171 26.1339C26.043 25.3917 27.2689 24.3168 28.191 23.0001C29.1132 21.6834 29.7043 20.1638 29.9143 18.5701C30.1243 16.9764 29.947 15.3556 29.3975 13.845C29.5525 13.9375 29.71 14.0325 29.8625 14.13ZM20 16.25C19.9997 17.2449 19.6041 18.1989 18.9004 18.9022C18.1967 19.6054 17.2424 20.0003 16.2475 20C15.2526 19.9997 14.2986 19.6041 13.5953 18.9004C12.8921 18.1967 12.4972 17.2424 12.4975 16.2475C12.4978 15.2526 12.8934 14.2986 13.5971 13.5953C14.3008 12.8921 15.2551 12.4972 16.25 12.4975C17.2449 12.4978 18.1989 12.8934 18.9022 13.5971C19.6054 14.3008 20.0003 15.2551 20 16.25Z" fill="black"/>
</svg>
