<svg width="40" height="40" viewBox="0 0 40 40" fill="none" xmlns="http://www.w3.org/2000/svg">
<g clip-path="url(#clip0_551_64)">
<path d="M19.9999 3.3335C29.2049 3.3335 36.6666 10.7952 36.6666 20.0002C36.6666 29.2052 29.2049 36.6668 19.9999 36.6668C10.7949 36.6668 3.33325 29.2052 3.33325 20.0002C3.33325 10.7952 10.7949 3.3335 19.9999 3.3335ZM19.9999 26.6668C19.5579 26.6668 19.134 26.8424 18.8214 27.155C18.5088 27.4675 18.3333 27.8915 18.3333 28.3335C18.3333 28.7755 18.5088 29.1994 18.8214 29.512C19.134 29.8246 19.5579 30.0002 19.9999 30.0002C20.4419 30.0002 20.8659 29.8246 21.1784 29.512C21.491 29.1994 21.6666 28.7755 21.6666 28.3335C21.6666 27.8915 21.491 27.4675 21.1784 27.155C20.8659 26.8424 20.4419 26.6668 19.9999 26.6668ZM19.9999 10.8335C18.3976 10.8335 16.8608 11.47 15.7278 12.6031C14.5948 13.7361 13.9583 15.2728 13.9583 16.8752C13.9583 17.3172 14.1338 17.7411 14.4464 18.0537C14.759 18.3662 15.1829 18.5418 15.6249 18.5418C16.0669 18.5418 16.4909 18.3662 16.8034 18.0537C17.116 17.7411 17.2916 17.3172 17.2916 16.8752C17.2921 16.3836 17.4265 15.9014 17.6802 15.4803C17.934 15.0592 18.2975 14.7152 18.7319 14.485C19.1663 14.2549 19.6552 14.1473 20.1461 14.1738C20.637 14.2003 21.1114 14.36 21.5184 14.6356C21.9255 14.9113 22.2499 15.2925 22.4567 15.7384C22.6636 16.1844 22.7452 16.6783 22.6928 17.1671C22.6404 17.6559 22.4559 18.1212 22.1591 18.5131C21.8624 18.905 21.4645 19.2088 21.0083 19.3918C19.8816 19.8418 18.3333 20.9952 18.3333 22.9168V23.3335C18.3333 23.7755 18.5088 24.1994 18.8214 24.512C19.134 24.8246 19.5579 25.0002 19.9999 25.0002C20.4419 25.0002 20.8659 24.8246 21.1784 24.512C21.491 24.1994 21.6666 23.7755 21.6666 23.3335C21.6666 22.9268 21.7499 22.7235 22.1016 22.5502L22.2466 22.4835C23.5479 21.96 24.6267 21.0001 25.2978 19.7684C25.969 18.5366 26.1907 17.1098 25.9251 15.7325C25.6595 14.3551 24.923 13.1131 23.842 12.2193C22.7609 11.3255 21.4026 10.8355 19.9999 10.8335Z" fill="black"/>
</g>
<defs>
<clipPath id="clip0_551_64">
<rect width="40" height="40" fill="white"/>
</clipPath>
</defs>
</svg>
