<svg width="40" height="40" viewBox="0 0 40 40" fill="none" xmlns="http://www.w3.org/2000/svg">
<path d="M34.6 6.6C33.8 5.8 32.4 5.8 31.4 6.6L26.6 11.4C24.4875 10.6158 22.2534 10.2096 20 10.2C12.4 10.4 5.6 14.4 2 21C2.4 21.8 3 22.6 3.6 23.4C5.2 25.6 7.2 27.4 9.4 28.8L6 32.2C5.2 33 5 34.4 6 35.4C6.8 36.2 8.2 36.4 9.2 35.4L34.6 9.8C35.4 8.8 35.4 7.4 34.6 6.6ZM13.4 24.6L10.8 27.2C8.4 25.8 6.2 23.8 4.6 21.4C7 18 10.2 15.6 14 14.4C11.4 17.2 11.2 21.6 13.4 24.6ZM20.2 18C19.2 17 19.4 15.4 20.4 14.4C21.4 13.6 22.8 13.6 23.8 14.4L20.2 18ZM36.6 19C35.6 17.6 34.4 16.2 33 15.2L31 17.2C32.6 18.4 34 19.8 35.2 21.6C31.8 26.8 26 30 19.8 30H18.2L16.2 32C17.6 31.8 18.8 32 20 32C26.6 32 32.8 28.8 36.6 23.4C37.2 22.6 37.6 21.8 38.2 21C37.6 20.4 37.2 19.6 36.6 19ZM28 20L20 28C24.4 28 28 24.4 28 20Z" fill="black"/>
</svg>
