<svg width="40" height="40" viewBox="0 0 40 40" fill="none" xmlns="http://www.w3.org/2000/svg">
<path d="M12.4583 35.0002C9.93047 35.0002 7.7777 34.1113 5.99992 32.3335C4.22214 30.5557 3.33325 28.4029 3.33325 25.8752C3.33325 23.4863 4.13214 21.4235 5.72992 19.6868C7.3277 17.9502 9.32047 16.9852 11.7083 16.7918L6.20825 5.75016C5.93047 5.19461 5.95159 4.65294 6.27159 4.12516C6.59159 3.59738 7.07047 3.3335 7.70825 3.3335H14.6249C15.2638 3.3335 15.8405 3.50016 16.3549 3.8335C16.8694 4.16683 17.2788 4.61127 17.5833 5.16683L19.9999 10.0002L22.4166 5.16683C22.7221 4.61127 23.1321 4.16683 23.6466 3.8335C24.161 3.50016 24.7371 3.3335 25.3749 3.3335H32.2916C32.9305 3.3335 33.4099 3.59738 33.7299 4.12516C34.0499 4.65294 34.0705 5.19461 33.7916 5.75016L28.3333 16.7085C30.6944 16.9307 32.6738 17.9102 34.2716 19.6468C35.8694 21.3835 36.6677 23.4457 36.6666 25.8335C36.6666 28.3891 35.7777 30.5557 33.9999 32.3335C32.2221 34.1113 30.0555 35.0002 27.4999 35.0002C27.2499 35.0002 26.9927 34.9929 26.7283 34.9785C26.4638 34.9641 26.2071 34.9296 25.9583 34.8752C27.486 33.8752 28.6805 32.5768 29.5416 30.9802C30.4027 29.3835 30.8333 27.6679 30.8333 25.8335C30.8333 22.8057 29.7844 20.2435 27.6866 18.1468C25.5888 16.0502 23.0266 15.0013 19.9999 15.0002C16.9721 15.0002 14.4099 16.0491 12.3133 18.1468C10.2166 20.2446 9.1677 22.8068 9.16659 25.8335C9.16659 27.7224 9.55547 29.5002 10.3333 31.1668C11.111 32.8335 12.3333 34.0696 13.9999 34.8752C13.7499 34.9307 13.4927 34.9657 13.2283 34.9802C12.9638 34.9946 12.706 35.0013 12.4583 35.0002ZM19.9999 33.3335C17.9166 33.3335 16.1455 32.6041 14.6866 31.1452C13.2277 29.6863 12.4988 27.9157 12.4999 25.8335C12.4999 23.7502 13.2294 21.9791 14.6883 20.5202C16.1471 19.0613 17.9177 18.3324 19.9999 18.3335C22.0833 18.3335 23.8544 19.0629 25.3133 20.5218C26.7721 21.9807 27.501 23.7513 27.4999 25.8335C27.4999 27.9168 26.7705 29.6879 25.3116 31.1468C23.8527 32.6057 22.0821 33.3346 19.9999 33.3335ZM19.9999 28.0835L22.0416 29.6252C22.2083 29.7641 22.3749 29.7713 22.5416 29.6468C22.7083 29.5224 22.7638 29.3624 22.7083 29.1668L21.9166 26.6252L23.9583 25.1668C24.1249 25.0279 24.1805 24.8679 24.1249 24.6868C24.0694 24.5057 23.9305 24.4157 23.7083 24.4168H21.2083L20.4166 21.7085C20.361 21.5141 20.2221 21.4168 19.9999 21.4168C19.7777 21.4168 19.6388 21.5141 19.5833 21.7085L18.7916 24.4168H16.2916C16.0694 24.4168 15.9305 24.5074 15.8749 24.6885C15.8194 24.8696 15.8749 25.0291 16.0416 25.1668L18.0833 26.6252L17.2916 29.1668C17.236 29.3613 17.2916 29.5213 17.4583 29.6468C17.6249 29.7724 17.7916 29.7652 17.9583 29.6252L19.9999 28.0835Z" fill="black"/>
</svg>
