<svg width="40" height="40" viewBox="0 0 40 40" fill="none" xmlns="http://www.w3.org/2000/svg">
<path d="M8.91995 10.3198L9.99995 14.9198L8.91995 19.4998L12.94 21.9798L15.4 25.9998L20 24.9198L24.6 25.9998L27.06 21.9798L31.08 19.4998L30 14.9198L31.08 10.3198L27.08 7.83982L24.6 3.81982L20 4.91982L15.42 3.83982L12.92 7.83982L8.91995 10.3198ZM20.02 22.9998C17.8982 22.9998 15.8634 22.157 14.3631 20.6567C12.8628 19.1564 12.02 17.1216 12.02 14.9998C12.02 12.8781 12.8628 10.8433 14.3631 9.34297C15.8634 7.84268 17.8982 6.99982 20.02 6.99982C24.42 6.99982 28 10.5798 28 14.9798C28 19.4198 24.42 22.9998 20.02 22.9998ZM19.98 20.9998C16.66 20.9998 14 18.3198 14 14.9998C14 11.6998 16.66 8.99982 19.98 8.99982C23.3 8.99982 26 11.6998 26 14.9998C26 18.3198 23.3 20.9998 19.98 20.9998ZM27.66 23.1998L25.1 27.6798L20.94 26.7398L26 38.3998L28.7999 33.9998H33.7999L27.66 23.1998ZM12.26 23.3398L14.76 27.8398L19.02 26.8198L14 38.3998L11.2 33.9998H6.19995L12.26 23.3398Z" fill="black"/>
</svg>
