<svg width="40" height="40" viewBox="0 0 40 40" fill="none" xmlns="http://www.w3.org/2000/svg">
<g clip-path="url(#clip0_455_47)">
<path d="M13.3335 14.6667C13.3335 12.8986 14.0359 11.2029 15.2861 9.95262C16.5364 8.70238 18.2321 8 20.0002 8C21.7683 8 23.464 8.70238 24.7142 9.95262C25.9644 11.2029 26.6668 12.8986 26.6668 14.6667C26.6668 16.4348 25.9644 18.1305 24.7142 19.3807C23.464 20.631 21.7683 21.3333 20.0002 21.3333C18.2321 21.3333 16.5364 20.631 15.2861 19.3807C14.0359 18.1305 13.3335 16.4348 13.3335 14.6667Z" fill="white"/>
<path fill-rule="evenodd" clip-rule="evenodd" d="M20 0C14.6957 0 9.60859 2.10714 5.85786 5.85786C2.10714 9.60859 0 14.6957 0 20C0 25.3043 2.10714 30.3914 5.85786 34.1421C9.60859 37.8929 14.6957 40 20 40C25.3043 40 30.3914 37.8929 34.1421 34.1421C37.8929 30.3914 40 25.3043 40 20C40 14.6957 37.8929 9.60859 34.1421 5.85786C30.3914 2.10714 25.3043 0 20 0ZM2.66667 20C2.66671 17.1325 3.37818 14.3097 4.73731 11.7848C6.09644 9.25977 8.06078 7.11143 10.4543 5.53224C12.8478 3.95305 15.5957 2.99234 18.4518 2.73622C21.3079 2.48009 24.1829 2.93654 26.8192 4.06467C29.4555 5.1928 31.7707 6.95736 33.5574 9.20023C35.3441 11.4431 36.5465 14.0942 37.0567 16.916C37.567 19.7378 37.3692 22.642 36.4811 25.3686C35.593 28.0951 34.0423 30.5587 31.968 32.5387C31.7689 30.209 30.7027 28.039 28.9803 26.4578C27.2579 24.8766 25.0048 23.9995 22.6667 24H17.3333C14.9952 23.9995 12.7421 24.8766 11.0197 26.4578C9.29728 28.039 8.23107 30.209 8.032 32.5387C6.33405 30.9218 4.98279 28.9764 4.06042 26.8209C3.13804 24.6653 2.66384 22.3446 2.66667 20Z" fill="white"/>
</g>
<defs>
<clipPath id="clip0_455_47">
<rect width="40" height="40" fill="white"/>
</clipPath>
</defs>
</svg>
