<svg width="200" height="200" viewBox="0 0 200 200" fill="none" xmlns="http://www.w3.org/2000/svg">
<path d="M112.5 28.125C112.5 23.981 111.183 20.0067 108.839 17.0765C106.495 14.1462 103.315 12.5 100 12.5C96.6848 12.5 93.5054 14.1462 91.1612 17.0765C88.817 20.0067 87.5 23.981 87.5 28.125C87.5 32.269 88.817 36.2433 91.1612 39.1735C93.5054 42.1038 96.6848 43.75 100 43.75C103.315 43.75 106.495 42.1038 108.839 39.1735C111.183 36.2433 112.5 32.269 112.5 28.125ZM45 81.25C48.3152 81.25 51.4946 79.6038 53.8388 76.6735C56.183 73.7433 57.5 69.769 57.5 65.625C57.5 61.481 56.183 57.5067 53.8388 54.5765C51.4946 51.6462 48.3152 50 45 50C41.6848 50 38.5054 51.6462 36.1612 54.5765C33.817 57.5067 32.5 61.481 32.5 65.625C32.5 69.769 33.817 73.7433 36.1612 76.6735C38.5054 79.6038 41.6848 81.25 45 81.25ZM10 162.5C4.46875 162.5 0 168.086 0 175C0 181.914 4.46875 187.5 10 187.5H190C195.531 187.5 200 181.914 200 175C200 168.086 195.531 162.5 190 162.5H10ZM155 81.25C158.315 81.25 161.495 79.6038 163.839 76.6735C166.183 73.7433 167.5 69.769 167.5 65.625C167.5 61.481 166.183 57.5067 163.839 54.5765C161.495 51.6462 158.315 50 155 50C151.685 50 148.505 51.6462 146.161 54.5765C143.817 57.5067 142.5 61.481 142.5 65.625C142.5 69.769 143.817 73.7433 146.161 76.6735C148.505 79.6038 151.685 81.25 155 81.25ZM62.5 122.461L70.9062 141.953C72.875 146.523 77.4062 148.203 81.0625 145.781C84.7187 143.359 86.0625 137.656 84.125 133.086L72.7812 106.719C73.3125 106.055 73.7812 105.312 74.125 104.453L82.5 84.9609V106.25C82.5 113.164 86.9687 118.75 92.5 118.75H107.5C113.031 118.75 117.5 113.164 117.5 106.25V84.9609L125.906 104.453C126.281 105.312 126.719 106.055 127.25 106.719L115.906 133.086C113.937 137.656 115.313 143.32 118.969 145.781C122.625 148.242 127.156 146.523 129.125 141.953L137.5 122.461V137.5C137.5 144.414 141.969 150 147.5 150H162.5C168.031 150 172.5 144.414 172.5 137.5V122.461L180.906 141.953C182.875 146.523 187.406 148.203 191.063 145.781C194.719 143.359 196.063 137.656 194.125 133.086L182.281 105.625C177.5 94.4922 168.187 87.5391 158.062 87.5391H151.938C146.844 87.5391 141.969 89.2969 137.75 92.4609L127.25 68.125C122.469 56.9922 113.156 50.0391 103.031 50.0391H96.9375C86.8125 50.0391 77.5312 56.9922 72.7187 68.125L62.2188 92.4609C58 89.2969 53.125 87.5391 48.0312 87.5391H41.9375C31.8125 87.5391 22.5313 94.4922 17.7188 105.625L5.90625 133.047C3.9375 137.617 5.3125 143.281 8.96875 145.742C12.625 148.203 17.1563 146.484 19.125 141.914L27.5 122.461V137.5C27.5 144.414 31.9687 150 37.5 150H52.5C58.0313 150 62.5 144.414 62.5 137.5V122.461Z" fill="#0DEBE5"/>
</svg>
