<svg width="40" height="40" viewBox="0 0 40 40" fill="none" xmlns="http://www.w3.org/2000/svg">
<path d="M18.3333 14.9998C18.3333 17.7665 16.0999 19.9998 13.3333 19.9998C10.5666 19.9998 8.33325 17.7665 8.33325 14.9998C8.33325 12.2332 10.5666 9.99984 13.3333 9.99984C16.0999 9.99984 18.3333 12.2332 18.3333 14.9998ZM23.3333 33.3332H3.33325V29.9998C3.33325 26.3165 7.81659 23.3332 13.3333 23.3332C18.8499 23.3332 23.3333 26.3165 23.3333 29.9998M36.6666 19.9998V23.3332H21.6666V19.9998M36.6666 13.3332V16.6665H21.6666V13.3332M36.6666 6.6665V9.99984H21.6666V6.6665H36.6666Z" fill="black"/>
</svg>
