<svg width="70" height="70" viewBox="0 0 70 70" fill="black" xmlns="http://www.w3.org/2000/svg">
<path fill-rule="evenodd" clip-rule="evenodd" d="M23.3333 20.4167C23.3333 17.3225 24.5625 14.355 26.7504 12.1671C28.9383 9.97916 31.9058 8.75 35 8.75C38.0942 8.75 41.0617 9.97916 43.2496 12.1671C45.4375 14.355 46.6667 17.3225 46.6667 20.4167C46.6667 23.5109 45.4375 26.4783 43.2496 28.6662C41.0617 30.8542 38.0942 32.0833 35 32.0833C31.9058 32.0833 28.9383 30.8542 26.7504 28.6662C24.5625 26.4783 23.3333 23.5109 23.3333 20.4167ZM23.3333 37.9167C19.4656 37.9167 15.7563 39.4531 13.0214 42.188C10.2865 44.9229 8.75 48.6323 8.75 52.5C8.75 54.8206 9.67187 57.0462 11.3128 58.6872C12.9538 60.3281 15.1794 61.25 17.5 61.25H52.5C54.8206 61.25 57.0462 60.3281 58.6872 58.6872C60.3281 57.0462 61.25 54.8206 61.25 52.5C61.25 48.6323 59.7135 44.9229 56.9786 42.188C54.2437 39.4531 50.5344 37.9167 46.6667 37.9167H23.3333Z" fill="white"/>
</svg>
