<svg width="40" height="40" viewBox="0 0 40 40" fill="none" xmlns="http://www.w3.org/2000/svg">
<g clip-path="url(#clip0_479_51)">
<path d="M26.6667 23.3335C28.8141 23.3336 30.8786 24.1627 32.4296 25.6479C33.9807 27.1331 34.8985 29.1597 34.9917 31.3052L35 31.6668V33.3335C35.0003 34.1745 34.6827 34.9844 34.1108 35.6011C33.539 36.2177 32.7553 36.5954 31.9167 36.6585L31.6667 36.6668H8.33333C7.49237 36.6671 6.68239 36.3495 6.06575 35.7777C5.44912 35.2058 5.07141 34.4221 5.00833 33.5835L5 33.3335V31.6668C5.00012 29.5194 5.82924 27.4549 7.31443 25.9039C8.79963 24.3528 10.8263 23.435 12.9717 23.3418L13.3333 23.3335H26.6667ZM20 3.3335C22.2101 3.3335 24.3298 4.21147 25.8926 5.77427C27.4554 7.33708 28.3333 9.45669 28.3333 11.6668C28.3333 13.877 27.4554 15.9966 25.8926 17.5594C24.3298 19.1222 22.2101 20.0002 20 20.0002C17.7899 20.0002 15.6702 19.1222 14.1074 17.5594C12.5446 15.9966 11.6667 13.877 11.6667 11.6668C11.6667 9.45669 12.5446 7.33708 14.1074 5.77427C15.6702 4.21147 17.7899 3.3335 20 3.3335Z" fill="black"/>
</g>
<defs>
<clipPath id="clip0_479_51">
<rect width="40" height="40" fill="white"/>
</clipPath>
</defs>
</svg>
