<svg width="40" height="40" viewBox="0 0 40 40" fill="none" xmlns="http://www.w3.org/2000/svg">
<path d="M20.9501 28.8168C20.6378 28.5064 20.2154 28.3322 19.7751 28.3322C19.3348 28.3322 18.9124 28.5064 18.6001 28.8168C18.4443 28.9755 18.3199 29.1621 18.2334 29.3668C18.0784 29.7748 18.0784 30.2255 18.2334 30.6335C18.324 30.836 18.448 31.022 18.6001 31.1835C18.7537 31.3334 18.9348 31.4523 19.1334 31.5335C19.339 31.6211 19.56 31.6664 19.7834 31.6668C20.0564 31.6655 20.3248 31.5971 20.5652 31.4677C20.8056 31.3383 21.0104 31.1518 21.1619 30.9247C21.3133 30.6976 21.4066 30.4367 21.4336 30.1651C21.4606 29.8934 21.4205 29.6193 21.3167 29.3668C21.2364 29.1588 21.1113 28.971 20.9501 28.8168ZM33.3334 14.9002C33.3161 14.7471 33.2825 14.5962 33.2334 14.4502V14.3002C33.1533 14.1288 33.0464 13.9713 32.9167 13.8335L22.9167 3.8335C22.779 3.70386 22.6214 3.59696 22.4501 3.51683H22.3001C22.1308 3.41973 21.9438 3.3574 21.7501 3.3335H11.6667C10.3407 3.3335 9.0689 3.86028 8.13121 4.79796C7.19353 5.73564 6.66675 7.00741 6.66675 8.3335V31.6668C6.66675 32.9929 7.19353 34.2647 8.13121 35.2024C9.0689 36.14 10.3407 36.6668 11.6667 36.6668H28.3334C29.6595 36.6668 30.9313 36.14 31.8689 35.2024C32.8066 34.2647 33.3334 32.9929 33.3334 31.6668V14.9002ZM23.3334 9.01683L27.6501 13.3335H25.0001C24.5581 13.3335 24.1341 13.1579 23.8216 12.8453C23.509 12.5328 23.3334 12.1089 23.3334 11.6668V9.01683ZM30.0001 31.6668C30.0001 32.1089 29.8245 32.5328 29.5119 32.8453C29.1994 33.1579 28.7754 33.3335 28.3334 33.3335H11.6667C11.2247 33.3335 10.8008 33.1579 10.4882 32.8453C10.1757 32.5328 10.0001 32.1089 10.0001 31.6668V8.3335C10.0001 7.89147 10.1757 7.46755 10.4882 7.15499C10.8008 6.84242 11.2247 6.66683 11.6667 6.66683H20.0001V11.6668C20.0001 12.9929 20.5269 14.2647 21.4645 15.2024C22.4022 16.14 23.674 16.6668 25.0001 16.6668H30.0001V31.6668ZM19.7834 16.6668C18.9052 16.6663 18.0423 16.897 17.2816 17.3359C16.5209 17.7748 15.8892 18.4063 15.4501 19.1668C15.3295 19.3565 15.2485 19.5687 15.212 19.7905C15.1756 20.0123 15.1843 20.2391 15.2378 20.4575C15.2913 20.6758 15.3884 20.8811 15.5232 21.0609C15.6581 21.2407 15.8279 21.3914 16.0225 21.5039C16.2171 21.6164 16.4325 21.6884 16.6556 21.7155C16.8788 21.7426 17.1051 21.7243 17.321 21.6616C17.5369 21.599 17.7378 21.4933 17.9118 21.351C18.0858 21.2087 18.2292 21.0327 18.3334 20.8335C18.4803 20.5792 18.6917 20.3681 18.9463 20.2218C19.201 20.0755 19.4897 19.999 19.7834 20.0002C20.2254 20.0002 20.6494 20.1758 20.9619 20.4883C21.2745 20.8009 21.4501 21.2248 21.4501 21.6668C21.4501 22.1089 21.2745 22.5328 20.9619 22.8453C20.6494 23.1579 20.2254 23.3335 19.7834 23.3335C19.3414 23.3335 18.9175 23.5091 18.6049 23.8217C18.2923 24.1342 18.1167 24.5581 18.1167 25.0002C18.1167 25.4422 18.2923 25.8661 18.6049 26.1787C18.9175 26.4912 19.3414 26.6668 19.7834 26.6668C21.1095 26.6668 22.3813 26.14 23.3189 25.2024C24.2566 24.2647 24.7834 22.9929 24.7834 21.6668C24.7834 20.3407 24.2566 19.069 23.3189 18.1313C22.3813 17.1936 21.1095 16.6668 19.7834 16.6668Z" fill="black"/>
</svg>
