<svg width="48" height="48" viewBox="0 0 48 48" fill="none" xmlns="http://www.w3.org/2000/svg">
<path d="M24.0001 0L29.0071 2.592L34.5811 3.438L37.1071 8.478L41.1181 12.438L40.2001 18L41.1181 23.562L37.1071 27.522L34.5811 32.562L29.0071 33.408L24.0001 36L18.9931 33.408L13.4191 32.562L10.8931 27.522L6.88208 23.562L7.80008 18L6.88208 12.438L10.8931 8.478L13.4191 3.438L18.9931 2.592L24.0001 0Z" fill="#FFD700"/>
<path d="M12 35.3818V47.9998L24 44.9998L36 47.9998V35.3818L29.946 36.2998L24 39.3778L18.054 36.2998L12 35.3818Z" fill="#FFD700"/>
</svg>
