<svg width="40" height="40" viewBox="0 0 40 40" fill="none" xmlns="http://www.w3.org/2000/svg">
<path d="M24.9998 23.3332C20.5498 23.3332 11.6665 25.5498 11.6665 29.9998V33.3332H38.3332V29.9998C38.3332 25.5498 29.4498 23.3332 24.9998 23.3332ZM9.99984 16.6665V11.6665H6.6665V16.6665H1.6665V19.9998H6.6665V24.9998H9.99984V19.9998H14.9998V16.6665M24.9998 19.9998C26.7679 19.9998 28.4636 19.2975 29.7139 18.0472C30.9641 16.797 31.6665 15.1013 31.6665 13.3332C31.6665 11.5651 30.9641 9.86937 29.7139 8.61913C28.4636 7.36888 26.7679 6.6665 24.9998 6.6665C23.2317 6.6665 21.536 7.36888 20.2858 8.61913C19.0356 9.86937 18.3332 11.5651 18.3332 13.3332C18.3332 15.1013 19.0356 16.797 20.2858 18.0472C21.536 19.2975 23.2317 19.9998 24.9998 19.9998Z" fill="black"/>
</svg>
