<svg width="41" height="37" viewBox="0 0 41 37" fill="none" xmlns="http://www.w3.org/2000/svg">
<path d="M9.125 31.6667C6.59722 31.6667 4.44444 30.7778 2.66667 29C0.888889 27.2222 0 25.0694 0 22.5417C0 20.1528 0.798889 18.09 2.39667 16.3533C3.99444 14.6167 5.98722 13.6517 8.375 13.4583L2.875 2.41667C2.59722 1.86111 2.61833 1.31944 2.93833 0.791666C3.25833 0.263889 3.73722 0 4.375 0H11.2917C11.9306 0 12.5072 0.166667 13.0217 0.5C13.5361 0.833333 13.9456 1.27778 14.25 1.83333L16.6667 6.66667L19.0833 1.83333C19.3889 1.27778 19.7989 0.833333 20.3133 0.5C20.8278 0.166667 21.4039 0 22.0417 0H28.9583C29.5972 0 30.0767 0.263889 30.3967 0.791666C30.7167 1.31944 30.7372 1.86111 30.4583 2.41667L25 13.375C27.3611 13.5972 29.3406 14.5767 30.9383 16.3133C32.5361 18.05 33.3344 20.1122 33.3333 22.5C33.3333 25.0556 32.4444 27.2222 30.6667 29C28.8889 30.7778 26.7222 31.6667 24.1667 31.6667C23.9167 31.6667 23.6594 31.6594 23.395 31.645C23.1306 31.6306 22.8739 31.5961 22.625 31.5417C24.1528 30.5417 25.3472 29.2433 26.2083 27.6467C27.0694 26.05 27.5 24.3344 27.5 22.5C27.5 19.4722 26.4511 16.91 24.3533 14.8133C22.2556 12.7167 19.6933 11.6678 16.6667 11.6667C13.6389 11.6667 11.0767 12.7156 8.98 14.8133C6.88333 16.9111 5.83444 19.4733 5.83333 22.5C5.83333 24.3889 6.22222 26.1667 7 27.8333C7.77778 29.5 9 30.7361 10.6667 31.5417C10.4167 31.5972 10.1594 31.6322 9.895 31.6467C9.63055 31.6611 9.37278 31.6678 9.125 31.6667ZM16.6667 30C14.5833 30 12.8122 29.2706 11.3533 27.8117C9.89444 26.3528 9.16556 24.5822 9.16667 22.5C9.16667 20.4167 9.89611 18.6456 11.355 17.1867C12.8139 15.7278 14.5844 14.9989 16.6667 15C18.75 15 20.5211 15.7294 21.98 17.1883C23.4389 18.6472 24.1678 20.4178 24.1667 22.5C24.1667 24.5833 23.4372 26.3544 21.9783 27.8133C20.5194 29.2722 18.7489 30.0011 16.6667 30ZM16.6667 24.75L18.7083 26.2917C18.875 26.4306 19.0417 26.4378 19.2083 26.3133C19.375 26.1889 19.4306 26.0289 19.375 25.8333L18.5833 23.2917L20.625 21.8333C20.7917 21.6944 20.8472 21.5344 20.7917 21.3533C20.7361 21.1722 20.5972 21.0822 20.375 21.0833H17.875L17.0833 18.375C17.0278 18.1806 16.8889 18.0833 16.6667 18.0833C16.4444 18.0833 16.3056 18.1806 16.25 18.375L15.4583 21.0833H12.9583C12.7361 21.0833 12.5972 21.1739 12.5417 21.355C12.4861 21.5361 12.5417 21.6956 12.7083 21.8333L14.75 23.2917L13.9583 25.8333C13.9028 26.0278 13.9583 26.1878 14.125 26.3133C14.2917 26.4389 14.4583 26.4317 14.625 26.2917L16.6667 24.75Z" fill="black"/>
<circle cx="31" cy="27" r="10" fill="black"/>
<line x1="26.6184" y1="23.2631" x2="34.3966" y2="31.0413" stroke="white"/>
<line x1="26.9113" y1="31.0415" x2="34.6895" y2="23.2633" stroke="white"/>
</svg>
