<svg width="40" height="40" viewBox="0 0 40 40" fill="none" xmlns="http://www.w3.org/2000/svg">
<path d="M40 15.5978C40 17.4435 38.3867 19.0217 36.5 19.0217H28.6991C29.9757 20.3536 30.1324 22.9097 28.207 24.5642C29.3233 26.3477 28.3748 28.7062 26.9219 29.4326C27.623 33.2717 25.2073 35 21.25 35C21.0355 35 20.2128 34.9841 20 34.9848C15.1585 34.9979 13.9927 32.5578 10.3335 31.9914C9.42156 31.8502 8.75 31.0624 8.75 30.1395V16.7391L8.75016 16.7391C8.75102 15.3042 9.57883 13.9352 10.9739 13.3137C13.2306 12.2985 18.428 9.48258 19.375 7.27281C19.9841 5.85141 21.0456 5.00063 22.5 5C25.1736 4.99891 27.0119 7.74203 25.9468 10.2272C25.6669 10.8802 25.2974 11.5295 24.8411 12.1739H36.5C38.332 12.1739 40 13.7788 40 15.5978ZM7.5 15.625V30.625C7.5 31.6605 6.66055 32.5 5.625 32.5H1.875C0.839453 32.5 0 31.6605 0 30.625V15.625C0 14.5895 0.839453 13.75 1.875 13.75H5.625C6.66055 13.75 7.5 14.5895 7.5 15.625ZM5.3125 28.75C5.3125 27.887 4.61297 27.1875 3.75 27.1875C2.88703 27.1875 2.1875 27.887 2.1875 28.75C2.1875 29.613 2.88703 30.3125 3.75 30.3125C4.61297 30.3125 5.3125 29.613 5.3125 28.75Z" fill="white"/>
</svg>
