<svg width="40" height="40" viewBox="0 0 40 40" fill="none" xmlns="http://www.w3.org/2000/svg">
<path d="M25 9C25 10.3261 24.4732 11.5979 23.5355 12.5355C22.5979 13.4732 21.3261 14 20 14C18.6739 14 17.4021 13.4732 16.4645 12.5355C15.5268 11.5979 15 10.3261 15 9C15 7.67392 15.5268 6.40215 16.4645 5.46447C17.4021 4.52678 18.6739 4 20 4C21.3261 4 22.5979 4.52678 23.5355 5.46447C24.4732 6.40215 25 7.67392 25 9ZM35 10C35 11.0609 34.5786 12.0783 33.8284 12.8284C33.0783 13.5786 32.0609 14 31 14C29.9391 14 28.9217 13.5786 28.1716 12.8284C27.4214 12.0783 27 11.0609 27 10C27 8.93913 27.4214 7.92172 28.1716 7.17157C28.9217 6.42143 29.9391 6 31 6C32.0609 6 33.0783 6.42143 33.8284 7.17157C34.5786 7.92172 35 8.93913 35 10ZM9 14C10.0609 14 11.0783 13.5786 11.8284 12.8284C12.5786 12.0783 13 11.0609 13 10C13 8.93913 12.5786 7.92172 11.8284 7.17157C11.0783 6.42143 10.0609 6 9 6C7.93913 6 6.92172 6.42143 6.17157 7.17157C5.42143 7.92172 5 8.93913 5 10C5 11.0609 5.42143 12.0783 6.17157 12.8284C6.92172 13.5786 7.93913 14 9 14ZM12 18.5C12 17.12 13.12 16 14.5 16H25.5C26.0848 15.9997 26.6513 16.2045 27.1007 16.5787C27.5502 16.9529 27.8543 17.4728 27.96 18.048C25.9727 18.2363 24.0742 18.9618 22.4677 20.1468C20.8613 21.3317 19.6077 22.9315 18.8411 24.7746C18.0745 26.6177 17.8239 28.6347 18.1161 30.6094C18.4084 32.584 19.2324 34.4419 20.5 35.984C19.4095 36.0523 18.3165 35.8965 17.2885 35.5261C16.2606 35.1558 15.3193 34.5788 14.5229 33.8307C13.7265 33.0826 13.0917 32.1793 12.6578 31.1765C12.2239 30.1737 12 29.0927 12 28V18.5ZM29.978 18.042C32.256 18.242 34.334 19.138 36 20.514V18.5C36 17.12 34.88 16 33.5 16H29.242C29.642 16.596 29.902 17.292 29.976 18.042H29.978ZM10 18.5C10 17.574 10.28 16.716 10.758 16H6.5C5.12 16 4 17.12 4 18.5V26C3.99991 26.8562 4.18308 27.7026 4.5372 28.4822C4.89133 29.2617 5.40821 29.9565 6.05311 30.5197C6.69801 31.083 7.456 31.5017 8.27613 31.7477C9.09627 31.9937 9.95956 32.0613 10.808 31.946C10.2729 30.6994 9.99795 29.3566 10 28V18.5ZM38 29C38 31.3869 37.0518 33.6761 35.364 35.364C33.6761 37.0518 31.3869 38 29 38C26.6131 38 24.3239 37.0518 22.636 35.364C20.9482 33.6761 20 31.3869 20 29C20 26.6131 20.9482 24.3239 22.636 22.636C24.3239 20.9482 26.6131 20 29 20C31.3869 20 33.6761 20.9482 35.364 22.636C37.0518 24.3239 38 26.6131 38 29ZM30 25C30 24.7348 29.8946 24.4804 29.7071 24.2929C29.5196 24.1054 29.2652 24 29 24C28.7348 24 28.4804 24.1054 28.2929 24.2929C28.1054 24.4804 28 24.7348 28 25V28H25C24.7348 28 24.4804 28.1054 24.2929 28.2929C24.1054 28.4804 24 28.7348 24 29C24 29.2652 24.1054 29.5196 24.2929 29.7071C24.4804 29.8946 24.7348 30 25 30H28V33C28 33.2652 28.1054 33.5196 28.2929 33.7071C28.4804 33.8946 28.7348 34 29 34C29.2652 34 29.5196 33.8946 29.7071 33.7071C29.8946 33.5196 30 33.2652 30 33V30H33C33.2652 30 33.5196 29.8946 33.7071 29.7071C33.8946 29.5196 34 29.2652 34 29C34 28.7348 33.8946 28.4804 33.7071 28.2929C33.5196 28.1054 33.2652 28 33 28H30V25Z" fill="black"/>
</svg>
