<svg width="48" height="49" viewBox="0 0 48 49" fill="none" xmlns="http://www.w3.org/2000/svg">
<g filter="url(#filter0_d_60_412)">
<path d="M36.9668 30.4337C34.2331 31.0901 31.3793 31.0583 28.6609 30.3411C25.9425 29.6239 23.4444 28.2438 21.3903 26.3243C19.3362 24.4048 17.7902 22.0058 16.8908 19.3422C15.9914 16.6786 15.7666 13.8336 16.2366 11.0618C16.1651 11.1308 16.0896 11.1956 16.0106 11.2558C15.4506 11.6818 14.7506 11.8398 13.3506 12.1558L12.0805 12.4438C7.1605 13.5578 4.70048 14.1138 4.11447 15.9957C3.53047 17.8757 5.20648 19.8377 8.56051 23.7597L9.42852 24.7737C10.3805 25.8877 10.8585 26.4457 11.0725 27.1337C11.2865 27.8237 11.2145 28.5677 11.0705 30.0537L10.9385 31.4077C10.4325 36.6416 10.1785 39.2576 11.7105 40.4196C13.2426 41.5836 15.5466 40.5236 20.1506 38.4016L21.3446 37.8536C22.6526 37.2496 23.3066 36.9496 24.0007 36.9496C24.6947 36.9496 25.3487 37.2496 26.6587 37.8536L27.8487 38.4016C32.4547 40.5216 34.7587 41.5816 36.2888 40.4216C37.8228 39.2576 37.5688 36.6416 37.0628 31.4077L36.9668 30.4337Z" fill="black"/>
<path opacity="0.5" d="M18.3066 7.71586L17.6506 8.89186C16.9306 10.1839 16.5706 10.8298 16.0106 11.2558C16.0906 11.1958 16.1646 11.1318 16.2366 11.0618C15.7665 13.8338 15.9912 16.6792 16.8908 19.343C17.7903 22.0068 19.3365 24.4059 21.3908 26.3255C23.4452 28.245 25.9436 29.6251 28.6622 30.3421C31.3809 31.059 34.2349 31.0905 36.9688 30.4337L36.9288 30.0537C36.7868 28.5677 36.7148 27.8238 36.9288 27.1338C37.1428 26.4458 37.6188 25.8878 38.5728 24.7738L39.4408 23.7598C42.7948 19.8398 44.4708 17.8778 43.8848 15.9958C43.3008 14.1138 40.8408 13.5558 35.9207 12.4438L34.6487 12.1558C33.2507 11.8398 32.5507 11.6818 31.9887 11.2558C31.4287 10.8298 31.0687 10.1839 30.3487 8.89186L29.6947 7.71586C27.1607 3.17189 25.8947 0.899902 24.0006 0.899902C22.1066 0.899902 20.8406 3.17189 18.3066 7.71586Z" fill="#F4C951"/>
</g>
<defs>
<filter id="filter0_d_60_412" x="0" y="0.899902" width="48" height="47.9999" filterUnits="userSpaceOnUse" color-interpolation-filters="sRGB">
<feFlood flood-opacity="0" result="BackgroundImageFix"/>
<feColorMatrix in="SourceAlpha" type="matrix" values="0 0 0 0 0 0 0 0 0 0 0 0 0 0 0 0 0 0 127 0" result="hardAlpha"/>
<feOffset dy="4"/>
<feGaussianBlur stdDeviation="2"/>
<feComposite in2="hardAlpha" operator="out"/>
<feColorMatrix type="matrix" values="0 0 0 0 0 0 0 0 0 0 0 0 0 0 0 0 0 0 0.25 0"/>
<feBlend mode="normal" in2="BackgroundImageFix" result="effect1_dropShadow_60_412"/>
<feBlend mode="normal" in="SourceGraphic" in2="effect1_dropShadow_60_412" result="shape"/>
</filter>
</defs>
</svg>
